<svg width="24" height="15" viewBox="0 0 24 15" fill="none" xmlns="http://www.w3.org/2000/svg">
<path fill-rule="evenodd" clip-rule="evenodd" d="M15.0383 1.60155V2.99743H20.9941V1.60155H15.0383ZM0 0.875L6.87284 0.946362C6.87284 0.946362 10.647 0.759744 11.1672 3.56902C11.6874 6.37829 9.26875 7.04202 9.26875 7.04202C9.26875 7.04202 12.2558 7.67807 11.8399 10.9594C11.4239 14.2407 7.34505 14.2746 7.34505 14.2746H0V0.875ZM3.12679 6.20798L5.97089 6.22462C6.15291 6.22462 6.63146 6.20973 7.02509 6.12261C7.19358 6.08532 7.52147 5.97922 7.74785 5.78787C7.84185 5.70841 8.01502 5.48456 8.11495 5.21926C8.21207 4.96141 8.23731 4.66253 8.23731 4.54786C8.23731 4.33791 8.19652 4.14357 8.11495 3.96482C8.03337 3.78608 7.91101 3.63146 7.74785 3.50095C7.5847 3.37044 7.37721 3.2683 7.12538 3.19454C6.87356 3.12077 6.57386 3.08389 6.22627 3.08389L3.12679 3.06725V6.20798ZM3.12679 11.8429L6.23414 11.8613C6.433 11.8613 6.95585 11.8448 7.38591 11.7485C7.56999 11.7073 7.92823 11.59 8.17557 11.3786C8.27827 11.2907 8.46746 11.0433 8.57664 10.7501C8.68275 10.4651 8.71033 10.1348 8.71033 10.008C8.71033 9.77598 8.66577 9.56118 8.57664 9.36362C8.48751 9.16607 8.35382 8.99517 8.17557 8.85092C7.99731 8.70667 7.77062 8.59379 7.49549 8.51226C7.22035 8.43073 6.89291 8.38996 6.51315 8.38996L3.12679 8.37157V11.8429ZM15.6951 10.0581C15.6996 10.1362 15.6951 12.0607 17.377 12.5027C19.3297 13.0159 20.2 11.4953 20.2675 11.3191H22.8252C22.759 11.6079 21.7193 15.5396 16.0626 14.2582C12.5902 13.4716 12.7688 9.61716 12.7688 9.28708C12.7688 8.98305 12.7827 7.36603 14.182 5.87488C15.5812 4.38372 17.5733 4.38372 17.9767 4.38372C18.3802 4.38372 20.4549 4.38372 21.7193 5.69964C23.3554 7.40226 23.0309 10.1304 23.0309 10.1304L15.6951 10.0581ZM20.1752 8.37157C20.1554 8.06992 20.0909 7.79193 19.9819 7.53759C19.8728 7.28326 19.7224 7.06294 19.5307 6.87662C19.339 6.69031 19.1093 6.54392 18.8416 6.43745C18.5739 6.33099 18.2748 6.27776 17.9443 6.27776C17.6469 6.27776 17.3709 6.33394 17.1164 6.44632C16.8619 6.55871 16.6388 6.71101 16.4471 6.90324C16.2554 7.09547 16.1018 7.31727 15.9861 7.56865C15.8704 7.82002 15.8026 8.08766 15.7828 8.37157H20.1752Z" fill="white"/>
</svg>
