<svg width="17" height="16" viewBox="0 0 17 16" fill="none" xmlns="http://www.w3.org/2000/svg">
<path d="M1.81818 4.28418C2.82234 4.28418 3.63637 3.52101 3.63637 2.57959C3.63637 1.63817 2.82234 0.875 1.81818 0.875C0.814029 0.875 0 1.63817 0 2.57959C0 3.52101 0.814029 4.28418 1.81818 4.28418Z" fill="white"/>
<path d="M3.63637 5.98877H0V15.3638H3.63637V5.98877Z" fill="white"/>
<path d="M12.2723 5.34937C11.6595 5.35093 11.055 5.48233 10.5041 5.73373C9.95309 5.98514 9.46985 6.35005 9.09046 6.80118V5.98858H5.4541V15.3638H9.09046V9.39774C9.09046 8.94566 9.28202 8.51209 9.623 8.19242C9.96397 7.87275 10.4264 7.69316 10.9086 7.69316C11.3909 7.69316 11.8533 7.87275 12.1943 8.19242C12.5353 8.51209 12.7268 8.94566 12.7268 9.39774V15.3638H16.3632V9.18467C16.3632 8.16748 15.9322 7.19196 15.165 6.4727C14.3978 5.75344 13.3573 5.34937 12.2723 5.34937V5.34937Z" fill="white"/>
</svg>
