<svg width="22" height="17" viewBox="0 0 22 17" fill="none" xmlns="http://www.w3.org/2000/svg">
<path d="M6.91857 16.7588C15.2205 16.7588 19.7613 10.3106 19.7613 4.71879C19.7613 4.53567 19.7613 4.35335 19.7481 4.17183C20.6314 3.57278 21.394 2.83113 22 1.98148C21.1762 2.32369 20.3023 2.54806 19.4075 2.64724C20.3496 2.11857 21.0551 1.2864 21.3919 0.306715C20.5059 0.799578 19.5365 1.14698 18.5258 1.33385C17.6723 0.483034 16.4804 0 15.2347 0C12.7561 0 10.7167 1.91199 10.7167 4.23552C10.7167 4.55786 10.756 4.8792 10.8337 5.19317C7.20633 5.02273 3.82203 3.41423 1.53119 0.772024C0.339926 2.69457 0.956312 5.18608 2.92862 6.42075C2.2104 6.40081 1.5076 6.21914 0.88 5.89111V5.94473C0.880602 7.95139 2.40311 9.69552 4.50119 10.0928C3.83672 10.2627 3.13938 10.2875 2.46314 10.1654C3.05297 11.8849 4.75385 13.0702 6.68009 13.1041C5.08209 14.2814 3.10694 14.921 1.07448 14.9191C0.715344 14.9184 0.356555 14.898 0 14.858C2.06396 16.0997 4.46617 16.7585 6.91857 16.7555" fill="white"/>
</svg>
